PathFileType	4	(X/Y/Z)	C:\Users\Caesar\Desktop\毕业设计\1-评估老年人缺少的力\Data\s4\S4_T_02_fixed.trc	Maker trajectories (.TRC) by Lee-Son ToolBox																																																																																				
DataRate	CameraRate	NumFrames	NumMarkers	Units	OrigDataRate	OrigDataStartFrame	OrigNumFrames																																																																																	
100	100	8	29	mm	100	501	1000																																																																																	
Frame#	Time	Unlabeled27			Unlabeled48			Unlabeled26			HEAD			C7			T10			STERN			LSHO			LELB			RSHO			RELB			LASI			RASI			LPSI			RPSI			LHIP			LTHI			LKNE			LTIB			LANK			LHEE			LTOE			RHIP			RTHI			RKNE			RTIB			RANK			RHEE			RTOE		
		X1	Y1	Z1	X2	Y2	Z2	X3	Y3	Z3	X4	Y4	Z4	X5	Y5	Z5	X6	Y6	Z6	X7	Y7	Z7	X8	Y8	Z8	X9	Y9	Z9	X10	Y10	Z10	X11	Y11	Z11	X12	Y12	Z12	X13	Y13	Z13	X14	Y14	Z14	X15	Y15	Z15	X16	Y16	Z16	X17	Y17	Z17	X18	Y18	Z18	X19	Y19	Z19	X20	Y20	Z20	X21	Y21	Z21	X22	Y22	Z22	X23	Y23	Z23	X24	Y24	Z24	X25	Y25	Z25	X26	Y26	Z26	X27	Y27	Z27	X28	Y28	Z28	X29	Y29	Z29
																																																																																								
501	5	764.749	168.441	1090.69	774.18	168.985	1794.88	214.424	171.288	1098.11	614.887	1646.32	1427.73	411.605	1487.64	1429.06	346.778	1359.57	1431.91	560.24	1365.55	1430.63	479.026	1477.19	1288.09	554.891	1193.43	1173.43	478.355	1475.61	1587.77	570.375	1184.13	1704.15	464.621	1023.89	1301.5	507.694	1012.77	1536.33	286.798	1099.46	1395.55	305.38	1093.82	1519.35	359.797	992.89	1269.61	327.79	770.502	1291.3	266.011	642.436	1306.93	154.212	410.255	1338.48	82.0819	331.622	1357.98	31.5204	310.211	1356.87	211.386	214.132	1396.1	437.725	989.278	1605.35	502.088	865.027	1583.25	542.573	635.308	1568.86	583.561	528.798	1563.53	603.362	280.534	1536.99	577.602	234.175	1523.74	784.852	288.824	1519.45
502	5.01	764.749	168.438	1090.69	774.182	168.962	1794.88	214.402	171.309	1098.1	615.352	1644.7	1429.15	411.971	1486.18	1430.89	347.165	1358.06	1433.65	560.551	1364.06	1431.92	479.208	1476.01	1289.78	554.437	1192.47	1173.91	478.818	1473.99	1589.44	570.608	1182.23	1705.74	464.235	1022.62	1301.97	508.753	1011.25	1536.55	286.922	1097.94	1397.39	306.374	1092.22	1521.06	359.134	991.668	1270.7	326.309	769.686	1291.77	263.585	641.98	1307.33	147.998	411.406	1338.27	74.3855	333.928	1357.43	23.3147	313.433	1356.44	200.544	213.856	1396.16	439.319	987.73	1606.02	504.022	863.705	1582.76	543.89	633.905	1567.97	584.461	527.111	1562.16	602.027	279.27	1536.04	575.267	234.395	1523.53	783.173	284.447	1515.85
503	5.02	764.751	168.427	1090.69	774.183	168.931	1794.88	214.375	171.326	1098.11	615.865	1643.19	1430.64	412.468	1484.75	1432.82	347.719	1356.55	1435.49	561.007	1362.58	1433.27	479.526	1474.87	1291.57	553.987	1191.55	1174.35	479.424	1472.36	1591.22	570.892	1180.27	1707.41	464.056	1021.3	1302.49	509.95	1009.81	1536.85	287.223	1096.44	1399.19	307.5	1090.74	1522.74	358.693	990.373	1271.82	325.202	768.729	1292.33	261.61	641.321	1307.85	142.125	412.548	1338.07	67.0125	336.306	1356.83	15.3894	316.803	1355.95	189.774	213.554	1396.23	441.046	986.311	1606.74	506.271	862.637	1582.17	545.57	632.655	1567.03	585.203	525.225	1560.66	598.789	277.854	1535.16	570.652	234.768	1523.42	779.531	278.335	1512.48
504	5.03	764.755	168.408	1090.69	774.184	168.891	1794.87	214.347	171.338	1098.11	616.43	1641.83	1432.19	413.094	1483.38	1434.83	348.438	1355.09	1437.39	561.611	1361.12	1434.67	479.982	1473.8	1293.44	553.549	1190.71	1174.76	480.174	1470.77	1593.12	571.223	1178.28	1709.14	464.086	1019.94	1303.08	511.245	1008.5	1537.24	287.695	1095.01	1400.9	308.738	1089.44	1524.33	358.47	989.027	1272.97	324.494	767.637	1293	260.153	640.454	1308.49	136.641	413.698	1337.88	60.0229	338.775	1356.21	7.80541	320.365	1355.42	179.094	213.209	1396.32	442.87	985.094	1607.51	508.701	861.833	1581.52	547.462	631.591	1566.09	585.728	523.227	1559.09	593.935	276.392	1534.32	564.162	235.239	1523.38	774.192	271.1	1509.51
505	5.04	764.759	168.383	1090.69	774.182	168.844	1794.87	214.324	171.343	1098.12	617.048	1640.65	1433.8	413.843	1482.12	1436.9	349.315	1353.72	1439.34	562.369	1359.71	1436.13	480.579	1472.82	1295.36	553.128	1189.96	1175.15	481.072	1469.24	1595.1	571.594	1176.3	1710.9	464.319	1018.59	1303.73	512.589	1007.38	1537.71	288.329	1093.72	1402.5	310.056	1088.4	1525.82	358.466	987.666	1274.13	324.221	766.42	1293.78	259.284	639.377	1309.23	131.61	414.871	1337.72	53.4787	341.36	1355.56	0.642416	324.177	1354.87	168.525	212.803	1396.43	444.735	984.161	1608.35	511.161	861.313	1580.89	549.403	630.747	1565.2	585.977	521.232	1557.53	587.774	275.01	1533.54	556.231	235.763	1523.4	767.451	263.441	1507.05
506	5.05	764.764	168.357	1090.69	774.18	168.794	1794.87	214.307	171.343	1098.12	617.719	1639.72	1435.47	414.708	1481.03	1438.99	350.334	1352.5	1441.31	563.285	1358.41	1437.66	481.318	1471.99	1297.33	552.73	1189.35	1175.54	482.116	1467.83	1597.17	571.989	1174.37	1712.64	464.741	1017.28	1304.44	513.927	1006.5	1538.25	289.113	1092.62	1403.93	311.415	1087.71	1527.16	358.682	986.334	1275.28	324.426	765.099	1294.68	259.069	638.098	1310.09	127.107	416.089	1337.57	47.4488	344.089	1354.89	-5.99908	328.309	1354.29	158.088	212.322	1396.57	446.566	983.588	1609.23	513.501	861.103	1580.36	551.234	630.153	1564.43	585.881	519.36	1556.07	580.575	273.816	1532.85	547.249	236.296	1523.5	759.59	256.012	1505.13
507	5.06	764.768	168.335	1090.69	774.179	168.746	1794.87	214.295	171.341	1098.14	618.436	1639.06	1437.19	415.682	1480.15	1441.05	351.473	1351.5	1443.27	564.357	1357.26	1439.27	482.201	1471.35	1299.3	552.361	1188.89	1175.98	483.3	1466.59	1599.27	572.396	1172.53	1714.32	465.333	1016.06	1305.22	515.209	1005.92	1538.89	290.024	1091.79	1405.15	312.763	1087.41	1528.32	359.115	985.081	1276.41	325.155	763.7	1295.7	259.582	636.627	1311.05	123.22	417.376	1337.42	42.0173	346.998	1354.21	-12.0013	332.83	1353.71	147.806	211.759	1396.74	448.272	983.43	1610.17	515.591	861.224	1580.01	552.808	629.819	1563.82	585.362	517.707	1554.8	572.537	272.889	1532.32	537.526	236.795	1523.69	750.848	249.33	1503.69
508	5.07	764.771	168.321	1090.7	774.179	168.705	1794.88	214.288	171.339	1098.16	619.188	1638.69	1438.96	416.751	1479.52	1443.06	352.701	1350.76	1445.18	565.562	1356.3	1440.95	483.223	1470.93	1301.25	552.029	1188.62	1176.5	484.61	1465.56	1601.38	572.802	1170.83	1715.88	466.075	1014.99	1306.1	516.392	1005.66	1539.62	291.028	1091.25	1406.13	314.038	1087.52	1529.27	359.757	983.962	1277.5	326.448	762.255	1296.81	260.909	634.982	1312.09	120.045	418.762	1337.27	37.2836	350.122	1353.51	-17.235	337.804	1353.11	137.701	211.111	1396.91	449.765	983.703	1611.14	517.334	861.67	1579.95	553.983	629.721	1563.42	584.327	516.32	1553.8	563.808	272.263	1531.96	527.297	237.23	1523.96	741.424	243.73	1502.67
